<svg class="icon" viewBox="0 0 1024 1024" version="1.1" xmlns="http://www.w3.org/2000/svg" width="200" height="200"><path d="M937.593333 257.073333A148.353333 148.353333 0 0 0 832 213.333333H212.26A53.426667 53.426667 0 0 0 160 170.666667h-64a53.393333 53.393333 0 0 0-53.333333 53.333333v533.333333a53.393333 53.393333 0 0 0 53.333333 53.333334h64a53.426667 53.426667 0 0 0 52.26-42.666667H384v192a21.333333 21.333333 0 0 0 21.333333 21.333333h170.666667a21.333333 21.333333 0 0 0 21.333333-21.333333v-192h362.666667a21.333333 21.333333 0 0 0 21.333333-21.333333V362.666667a148.353333 148.353333 0 0 0-43.74-105.593334zM170.666667 757.333333a10.666667 10.666667 0 0 1-10.666667 10.666667h-64a10.666667 10.666667 0 0 1-10.666667-10.666667V224a10.666667 10.666667 0 0 1 10.666667-10.666667h64a10.666667 10.666667 0 0 1 10.666667 10.666667z m384 181.333334H426.666667v-170.666667h128z m384-213.333334H213.333333V256h618.666667c58.813333 0 106.666667 47.853333 106.666667 106.666667z m-149.333334-384H362.666667a21.333333 21.333333 0 0 0-21.333334 21.333334v85.333333a21.333333 21.333333 0 0 0 42.666667 0v-64h256v85.333333a85.333333 85.333333 0 0 0 170.666667 0V362.666667a21.333333 21.333333 0 0 0-21.333334-21.333334z m-21.333333 128a42.666667 42.666667 0 0 1-85.333333 0V384h85.333333z" fill="#5C5C66" ></path></svg>
